HIERARCHY
ROOT pelvis
{
	OFFSET 0.000000 0.000000 0.676533
	CHANNELS 6 Xposition Yposition Zposition Xrotation Yrotation Zrotation
	JOINT spine
	{
		OFFSET 0.000000 0.000000 0.000000
		CHANNELS 6 Xposition Yposition Zposition Xrotation Yrotation Zrotation
		JOINT spine.001
		{
			OFFSET 0.000000 -0.012583 0.240098
			CHANNELS 3 Xrotation Yrotation Zrotation
			JOINT neck
			{
				OFFSET 0.000000 0.029301 0.238635
				CHANNELS 6 Xposition Yposition Zposition Xrotation Yrotation Zrotation
				JOINT face
				{
					OFFSET 0.000000 0.003110 0.178174
					CHANNELS 6 Xposition Yposition Zposition Xrotation Yrotation Zrotation
					End Site
					{
						OFFSET 0.000000 -0.022528 -0.007061
					}
				}
			}
			JOINT shoulder.L
			{
				OFFSET 0.000000 0.029301 0.238635
				CHANNELS 6 Xposition Yposition Zposition Yrotation Xrotation Zrotation
				JOINT upper_arm.L
				{
					OFFSET 0.144247 0.000000 0.000000
					CHANNELS 6 Xposition Yposition Zposition Xrotation Yrotation Zrotation
					JOINT forearm.L
					{
						OFFSET 0.241736 0.000104 0.000864
						CHANNELS 6 Xposition Yposition Zposition Xrotation Yrotation Zrotation
						End Site
						{
							OFFSET 0.220586 -0.003755 -0.001191
						}
					}
				}
			}
			JOINT shoulder.R
			{
				OFFSET 0.000000 0.029301 0.238635
				CHANNELS 6 Xposition Yposition Zposition Yrotation Xrotation Zrotation
				JOINT upper_arm.R
				{
					OFFSET -0.144247 0.000000 0.000000
					CHANNELS 6 Xposition Yposition Zposition Xrotation Yrotation Zrotation
					JOINT forearm.R
					{
						OFFSET -0.240681 0.000104 0.000864
						CHANNELS 6 Xposition Yposition Zposition Xrotation Yrotation Zrotation
						End Site
						{
							OFFSET -0.216173 -0.003678 -0.001191
						}
					}
				}
			}
		}
	}
	JOINT pelvis.L
	{
		OFFSET 0.000000 0.000000 0.000000
		CHANNELS 6 Xposition Yposition Zposition Yrotation Xrotation Zrotation
		End Site
		{
			OFFSET 0.090690 0.000000 0.000000
		}
	}
	JOINT pelvis.R
	{
		OFFSET 0.000000 0.000000 0.000000
		CHANNELS 6 Xposition Yposition Zposition Yrotation Xrotation Zrotation
		End Site
		{
			OFFSET -0.090690 0.000000 0.000000
		}
	}
	JOINT thigh.L
	{
		OFFSET 0.090690 0.000000 0.000000
		CHANNELS 6 Xposition Yposition Zposition Xrotation Yrotation Zrotation
		JOINT shin.L
		{
			OFFSET 0.016922 0.000000 -0.322884
			CHANNELS 6 Xposition Yposition Zposition Xrotation Yrotation Zrotation
			JOINT foot.L
			{
				OFFSET 0.015376 0.000000 -0.293391
				CHANNELS 3 Xrotation Yrotation Zrotation
				End Site
				{
					OFFSET 0.013618 -0.138845 -0.058304
				}
			}
			JOINT heel.02.L
			{
				OFFSET 0.015376 0.000000 -0.293391
				CHANNELS 3 Xrotation Yrotation Zrotation
				End Site
				{
					OFFSET 0.073445 0.031072 -0.055646
				}
			}
		}
	}
	JOINT thigh.R
	{
		OFFSET -0.090690 0.000000 0.000000
		CHANNELS 6 Xposition Yposition Zposition Xrotation Yrotation Zrotation
		JOINT shin.R
		{
			OFFSET -0.017084 0.000000 -0.325982
			CHANNELS 6 Xposition Yposition Zposition Xrotation Yrotation Zrotation
			JOINT foot.R
			{
				OFFSET -0.015190 0.000000 -0.289837
				CHANNELS 3 Xrotation Yrotation Zrotation
				End Site
				{
					OFFSET -0.013876 -0.141485 -0.059412
				}
			}
			JOINT heel.02.R
			{
				OFFSET -0.015190 0.000000 -0.289837
				CHANNELS 3 Xrotation Yrotation Zrotation
				End Site
				{
					OFFSET -0.068588 0.031072 -0.056358
				}
			}
		}
	}
}
MOTION
Frames: 10
Frame Time: 0.041667
0.099687 0.039097 0.664177 -0.000000 0.000000 25.559280 0.000000 -0.000000 -0.000000 -3.425078 1.764566 0.145480 9.959095 -0.757011 -6.177762 0.000000 0.029301 0.238635 17.128463 -2.187269 -3.944973 -0.000000 0.003110 0.178173 -3.018512 -0.000002 -0.000001 0.000000 0.029301 0.238636 -2.891534 0.008956 0.354853 0.144247 0.000000 0.000000 8.782796 72.569107 -11.965806 0.241736 0.000104 0.000864 -0.093080 0.185674 -24.972140 -0.000000 0.029301 0.238636 -2.838124 0.008627 0.348300 -0.144247 0.000000 0.000000 12.927797 -77.991949 15.956937 -0.240681 0.000104 0.000864 3.350317 -13.076446 27.951108 0.000000 -0.000000 0.000000 2.587477 -0.000000 0.000005 0.000000 -0.000000 0.000000 2.587479 -0.000000 0.000002 0.090598 0.000000 -0.004094 6.150776 5.883436 0.006297 0.016922 0.000000 -0.322884 1.019832 3.789205 0.019744 -3.626577 -1.992457 3.551550 -22.373268 50.139459 37.620320 -0.090598 0.000000 0.004094 -6.138047 0.891680 0.369649 -0.017084 -0.000000 -0.325982 1.599071 0.374170 -0.089015 1.022091 6.583352 -16.013334 -17.265603 -51.022585 -48.401603 
0.097640 0.044051 0.664973 -0.000000 0.000000 22.125920 -0.000000 0.000000 0.000000 -3.090740 2.038279 0.162058 9.973849 -0.605422 -4.937142 0.000000 0.029301 0.238635 16.024647 -1.828976 -4.400668 -0.000000 0.003110 0.178174 -1.984090 -0.000001 0.000007 0.000000 0.029301 0.238635 -2.686658 0.007731 0.329685 0.144247 0.000000 0.000000 17.150018 70.659844 -24.010196 0.241736 0.000104 0.000864 -0.332703 -0.838759 -24.556596 0.000000 0.029301 0.238635 -2.633198 0.007428 0.323163 -0.144246 0.000000 -0.000000 16.729145 -77.857449 20.652189 -0.240681 0.000104 0.000864 2.979101 -12.246022 26.601505 -0.000000 0.000000 -0.000000 2.661286 0.000000 0.000017 -0.000000 -0.000000 -0.000000 2.661288 -0.000000 -0.000003 0.090593 -0.000000 -0.004211 5.983046 6.317008 -0.016664 0.016922 0.000000 -0.322884 0.684572 3.766263 0.013398 -3.089799 -3.019354 5.963258 -23.833933 51.032230 38.768178 -0.090592 0.000000 0.004211 -6.552939 -0.373746 0.322457 -0.017084 -0.000000 -0.325982 1.380233 0.868441 -0.082767 0.930974 6.028429 -14.659364 -13.810241 -48.874013 -45.174803 
0.096100 0.048588 0.665608 -0.000000 0.000000 18.604696 0.000000 0.000000 0.000000 -2.872485 2.300928 0.178533 9.984587 -0.465525 -3.794179 -0.000000 0.029301 0.238635 15.001802 -1.585870 -4.165335 -0.000000 0.003110 0.178174 -0.934867 0.000001 0.000007 -0.000000 0.029301 0.238635 -2.405248 0.006197 0.295183 0.144247 -0.000000 -0.000000 22.521215 68.631981 -32.487535 0.241736 0.000104 0.000864 -0.468104 -1.439906 -24.230267 -0.000000 0.029301 0.238636 -2.351835 0.005925 0.288652 -0.144247 0.000000 -0.000000 21.412802 -77.695977 26.431621 -0.240681 0.000104 0.000864 2.566988 -11.269432 24.973892 0.000000 0.000000 0.000000 2.557773 -0.000001 0.000044 0.000000 -0.000000 0.000000 2.557738 0.000000 -0.000002 0.090600 0.000000 -0.004047 5.820322 6.827166 -0.042317 0.016922 0.000000 -0.322884 0.193810 3.531908 0.004191 -2.335674 -3.983705 8.373557 -24.649082 51.607164 39.978258 -0.090600 0.000000 0.004047 -7.009646 -1.396374 0.282472 -0.017084 -0.000000 -0.325982 1.232107 1.267614 -0.078164 1.204061 5.345964 -13.206223 -10.634227 -46.687533 -42.540139 
0.095363 0.051714 0.666467 -0.000000 0.000000 15.488274 0.000000 -0.000000 -0.000000 -2.935014 2.579418 0.201568 9.990269 -0.370773 -3.021087 -0.000000 0.029301 0.238635 14.584938 -1.630494 -3.554895 0.000000 0.003110 0.178173 -0.078996 0.000002 -0.000005 0.000000 0.029301 0.238636 -2.236697 0.005358 0.274549 0.144247 -0.000000 -0.000000 25.897525 67.833607 -37.703734 0.241736 0.000104 0.000864 -0.679679 -2.292981 -24.722817 -0.000000 0.029301 0.238636 -2.183282 0.005108 0.268046 -0.144246 0.000000 0.000000 24.875404 -77.426341 30.773001 -0.240681 0.000104 0.000864 2.294826 -10.568791 23.853490 0.000000 -0.000000 -0.000000 2.411755 -0.000001 0.000036 0.000000 -0.000000 -0.000000 2.411756 0.000000 -0.000002 0.090610 0.000000 -0.003816 5.841331 7.260956 -0.064766 0.016922 -0.000000 -0.322884 -0.608792 3.238517 -0.014714 -1.546443 -4.760480 10.450126 -24.976023 51.946485 41.151565 -0.090610 0.000000 0.003816 -7.190438 -2.083844 0.246622 -0.017084 0.000000 -0.325982 1.113627 1.536103 -0.073242 1.534122 4.785047 -12.047239 -8.556811 -45.183129 -41.078305 
0.094933 0.053225 0.667713 -0.000000 0.000000 12.984297 -0.000000 0.000000 -0.000000 -3.230371 2.872499 0.231929 9.991335 -0.348049 -2.835885 -0.000000 0.029301 0.238635 14.823630 -1.820132 -3.181133 -0.000000 0.003110 0.178174 0.752112 -0.000001 -0.000004 -0.000000 0.029301 0.238636 -2.186399 0.005120 0.268346 0.144247 0.000000 -0.000000 29.260182 67.932822 -42.300492 0.241736 0.000104 0.000864 -1.052348 -3.774898 -25.246628 -0.000000 0.029301 0.238636 -2.132988 0.004874 0.261799 -0.144246 0.000000 0.000000 27.040306 -77.120779 33.567911 -0.240681 0.000104 0.000864 2.168460 -10.308432 23.109930 -0.000000 0.000000 -0.000000 2.263188 -0.000000 0.000002 -0.000000 -0.000000 -0.000000 2.263152 -0.000000 -0.000002 0.090620 0.000000 -0.003581 6.053950 7.564674 -0.083321 0.016922 0.000000 -0.322884 -1.536810 2.970137 -0.040756 -0.939527 -5.354276 12.082489 -25.459269 52.320393 42.223669 -0.090620 0.000000 0.003581 -6.954089 -2.471134 0.214968 -0.017084 -0.000000 -0.325982 1.034139 1.652210 -0.069061 1.357187 4.534001 -11.352414 -8.008685 -44.921980 -41.074043 
0.094337 0.053577 0.669091 -0.000000 0.000000 11.035872 0.000000 0.000000 -0.000000 -3.608501 3.132747 0.263362 9.989049 -0.392164 -3.195697 -0.000000 0.029301 0.238635 15.334113 -1.894553 -3.300105 0.000000 0.003110 0.178174 1.774637 0.000000 -0.000001 -0.000000 0.029301 0.238636 -2.123147 0.004829 0.260601 0.144247 0.000000 -0.000000 32.786219 67.863298 -47.164235 0.241736 0.000104 0.000864 -1.353503 -5.008428 -25.294607 -0.000000 0.029301 0.238636 -2.069689 0.004589 0.254047 -0.144247 0.000000 -0.000000 28.960005 -76.762133 36.109291 -0.240681 0.000104 0.000864 2.104516 -10.412236 22.137427 0.000000 -0.000000 -0.000000 2.051746 -0.000000 0.000027 0.000000 -0.000000 -0.000000 2.051786 -0.000000 0.000000 0.090632 0.000000 -0.003247 6.364436 7.799740 -0.100784 0.016922 0.000000 -0.322884 -2.338713 2.712234 -0.067295 -0.626470 -5.783642 13.218569 -26.254837 52.770940 43.094030 -0.090632 -0.000000 0.003247 -6.323536 -2.595416 0.188568 -0.017084 -0.000000 -0.325982 0.941389 1.489871 -0.061536 0.414116 4.618115 -11.073461 -8.932192 -45.842037 -42.295847 
0.093407 0.053627 0.670168 -0.000000 0.000000 9.292846 -0.000000 0.000000 -0.000000 -3.972791 3.329524 0.290579 9.985486 -0.451391 -3.678914 0.000000 0.029301 0.238635 15.727991 -1.824007 -3.976787 -0.000000 0.003110 0.178174 2.785095 -0.000000 -0.000003 -0.000000 0.029301 0.238635 -1.997124 0.004272 0.245110 0.144247 0.000000 -0.000000 36.100944 67.403394 -51.997995 0.241736 0.000104 0.000864 -1.381977 -5.237231 -24.794222 -0.000000 0.029301 0.238635 -1.943709 0.004048 0.238589 -0.144247 0.000000 0.000000 30.564253 -76.461953 38.244715 -0.240681 0.000104 0.000864 2.056449 -10.565511 21.244477 0.000000 0.000000 -0.000000 1.758540 0.000001 -0.000072 0.000000 0.000000 -0.000000 1.758504 -0.000000 0.000000 0.090648 0.000000 -0.002783 6.658755 8.044160 -0.119809 0.016922 -0.000000 -0.322884 -2.922328 2.439390 -0.091056 -0.609835 -6.114765 13.977648 -26.977135 53.137820 43.697587 -0.090648 0.000000 0.002783 -5.482053 -2.507291 0.167653 -0.017084 0.000000 -0.325982 0.680751 0.994530 -0.041568 -0.763579 4.805418 -10.925544 -10.486744 -47.128339 -43.923249 
0.092079 0.054038 0.670983 -0.000000 0.000000 7.255092 -0.000000 0.000000 -0.000000 -4.315110 3.494580 0.315519 9.983593 -0.479780 -3.910534 -0.000000 0.029301 0.238635 15.909566 -1.785629 -5.347690 -0.000000 0.003110 0.178174 3.310572 -0.000000 0.000006 0.000000 0.029301 0.238636 -1.890956 0.003831 0.232081 0.144247 0.000000 0.000000 39.404444 66.960647 -56.768632 0.241736 0.000104 0.000864 -1.139182 -4.469306 -23.511427 0.000000 0.029301 0.238636 -1.837590 0.003618 0.225543 -0.144246 0.000000 -0.000000 30.674103 -76.511485 38.346956 -0.240681 0.000104 0.000864 2.089442 -10.559503 21.622207 -0.000000 0.000000 0.000000 1.453025 -0.000001 0.000067 -0.000000 0.000000 0.000000 1.453026 -0.000000 0.000000 0.090661 0.000000 -0.002300 6.870077 8.297697 -0.138989 0.016922 -0.000000 -0.322884 -3.340208 2.189993 -0.111353 -0.766045 -6.523404 14.810823 -27.528157 53.409009 44.149264 -0.090661 0.000000 0.002300 -4.690387 -2.321564 0.151019 -0.017084 -0.000000 -0.325982 0.197895 0.362980 -0.010995 -1.385521 4.751533 -10.505803 -11.495990 -47.887177 -44.912073 
0.090426 0.054709 0.672194 -0.000000 0.000000 4.728795 0.000000 0.000000 -0.000000 -4.645201 3.651661 0.340321 9.982698 -0.492699 -4.015569 -0.000000 0.029301 0.238635 15.973009 -1.830632 -7.271882 0.000000 0.003110 0.178173 3.307791 -0.000000 -0.000002 -0.000000 0.029301 0.238636 -1.846941 0.003653 0.226654 0.144247 0.000000 0.000000 42.368309 66.838742 -60.750680 0.241736 0.000104 0.000864 -0.688862 -2.700673 -21.846710 -0.000000 0.029301 0.238636 -1.793531 0.003445 0.220078 -0.144246 0.000000 0.000000 28.504258 -76.902220 35.472062 -0.240681 0.000104 0.000864 2.332316 -10.821315 23.630918 0.000000 -0.000000 -0.000000 1.216439 0.000001 -0.000058 0.000000 -0.000000 -0.000000 1.216439 -0.000000 0.000000 0.090670 0.000000 -0.001925 7.042941 8.509951 -0.155693 0.016922 -0.000000 -0.322884 -3.725259 1.993746 -0.130577 -0.832028 -7.136784 16.145993 -28.297344 53.768646 44.713956 -0.090670 -0.000000 0.001925 -4.110816 -2.132006 0.139142 -0.017084 0.000000 -0.325982 -0.328389 -0.094842 0.016940 -1.196160 4.340195 -9.666459 -11.700322 -47.952856 -44.866338 
0.088619 0.055206 0.674104 -0.000000 0.000000 2.123612 -0.000000 0.000000 0.000000 -4.917641 3.767983 0.360211 9.979262 -0.540611 -4.407063 -0.000000 0.029301 0.238636 15.947419 -1.841181 -9.123949 0.000000 0.003110 0.178174 3.210911 -0.000001 -0.000004 -0.000000 0.029301 0.238636 -1.806347 0.003496 0.221736 0.144247 0.000000 0.000000 44.304101 67.238281 -62.856366 0.241736 0.000104 0.000864 -0.121272 -0.026263 -21.155305 -0.000000 0.029301 0.238636 -1.752936 0.003293 0.215172 -0.144246 0.000000 0.000000 24.910410 -77.143326 30.963150 -0.240681 0.000104 0.000864 2.827494 -11.979483 25.816186 -0.000000 0.000000 0.000000 1.099227 -0.000000 -0.000006 -0.000000 0.000000 0.000000 1.099228 -0.000000 0.000000 0.090674 0.000000 -0.001740 7.269246 8.638449 -0.168960 0.016922 0.000000 -0.322884 -4.199798 1.814670 -0.153784 -0.600023 -7.841051 17.861904 -29.428973 54.278854 45.548312 -0.090674 0.000000 0.001740 -3.738190 -1.936861 0.132886 -0.017084 -0.000000 -0.325982 -0.636678 -0.204412 0.032234 -0.613894 3.824935 -8.751006 -12.032360 -47.936767 -44.428386 
